<?xml version="1.0" encoding="UTF-8"?>
<svg version="1.1" xmlns="http://www.w3.org/2000/svg" width="50" height="50">
    <path d="M0 0 C3 2 3 2 5 5 C5.86581772 9.4012401 6.01108378 11.47398762 3.52734375 15.22265625 C-2.95356484 22.8043561 -2.95356484 22.8043561 -7.04296875 23.1953125 C-7.75066406 23.17210938 -8.45835938 23.14890625 -9.1875 23.125 C-10.445625 23.08375 -11.70375 23.0425 -13 23 C-12.67 22.01 -12.34 21.02 -12 20 C-10.948125 19.731875 -9.89625 19.46375 -8.8125 19.1875 C-4.28625582 17.77768624 -1.62364229 15.95880545 1 12 C1.66887173 8.82876903 1.66887173 8.82876903 1 6 C-0.86218169 3.77298541 -0.86218169 3.77298541 -3.6875 3.4375 C-8.61362869 4.27401242 -11.10325139 7.04085547 -14 11 C-15.04798094 13.39142787 -15.52415422 15.40928408 -16 18 C-16.66 18 -17.32 18 -18 18 C-18.52300693 14.86195844 -18.64665842 12.12712428 -18 9 C-13.26581233 2.5148114 -8.27480357 -1.36067516 0 0 Z " fill="#000000" transform="translate(41,4)"/>
    <path d="M0 0 C1.8871875 0.061875 1.8871875 0.061875 3.8125 0.125 C3.4825 1.115 3.1525 2.105 2.8125 3.125 C1.760625 3.393125 0.70875 3.66125 -0.375 3.9375 C-4.90124418 5.34731376 -7.56385771 7.16619455 -10.1875 11.125 C-10.85637173 14.29623097 -10.85637173 14.29623097 -10.1875 17.125 C-8.32531831 19.35201459 -8.32531831 19.35201459 -5.5 19.6875 C-0.57387131 18.85098758 1.91575139 16.08414453 4.8125 12.125 C5.86048094 9.73357213 6.33665422 7.71571592 6.8125 5.125 C7.4725 5.125 8.1325 5.125 8.8125 5.125 C9.65080986 11.83147887 9.65080986 11.83147887 7.359375 15.3671875 C0.79088303 22.90163417 0.79088303 22.90163417 -5.0625 23.5625 C-8.40397704 23.45769352 -9.24568326 23.08621116 -12.1875 21.125 C-14.22910423 18.06259365 -15.0346899 15.96472834 -14.81640625 12.25390625 C-12.95928324 5.96737184 -6.66224659 -0.21843431 0 0 Z " fill="#000000" transform="translate(18.1875,22.875)"/>
    <path d="M0 0 C-0.49685857 4.25310932 -2.91961357 6.32031258 -5.875 9.25 C-6.75929688 10.14203125 -7.64359375 11.0340625 -8.5546875 11.953125 C-11 14 -11 14 -14 14 C-13.50314143 9.74689068 -11.08038643 7.67968742 -8.125 4.75 C-7.24070312 3.85796875 -6.35640625 2.9659375 -5.4453125 2.046875 C-3 0 -3 0 0 0 Z " fill="#000000" transform="translate(32,18)"/>
</svg>
